<svg width="16" height="15" viewBox="0 0 16 15" fill="none" xmlns="http://www.w3.org/2000/svg">
<path d="M1 8.00125H12.86L9.23 12.3612C9.14595 12.4624 9.08265 12.579 9.0437 12.7046C9.00474 12.8302 8.99091 12.9622 9.00298 13.0932C9.02736 13.3576 9.15578 13.6015 9.36 13.7712C9.56422 13.941 9.8275 14.0226 10.0919 13.9983C10.3563 13.9739 10.6003 13.8455 10.77 13.6412L15.77 7.64125C15.8036 7.59353 15.8337 7.54339 15.86 7.49125C15.86 7.44125 15.91 7.41125 15.93 7.36125C16.0233 7.13032 16.0233 6.87218 15.93 6.64125C15.93 6.59125 15.88 6.56125 15.86 6.51125C15.8337 6.45911 15.8036 6.40897 15.77 6.36125L10.77 0.36125C10.686 0.260132 10.5828 0.176558 10.4665 0.1153C10.3501 0.0540426 10.2229 0.0163003 10.0919 0.00422869C9.96099 -0.00784293 9.82897 0.00599261 9.70338 0.0449449C9.5778 0.0838971 9.46112 0.147203 9.36 0.231249C9.25888 0.315295 9.17531 0.418435 9.11405 0.53478C9.05279 0.651124 9.01505 0.778395 9.00298 0.909326C8.99091 1.04026 9.00474 1.17228 9.0437 1.29787C9.08265 1.42345 9.14595 1.54013 9.23 1.64125L12.86 6.00125H1C0.734784 6.00125 0.48043 6.10661 0.292893 6.29414C0.105357 6.48168 0 6.73603 0 7.00125C0 7.26647 0.105357 7.52082 0.292893 7.70836C0.48043 7.89589 0.734784 8.00125 1 8.00125Z" fill="#344863"/>
</svg>
