<svg width="28" height="28" viewBox="0 0 28 28" fill="none" xmlns="http://www.w3.org/2000/svg">
<path d="M24.0958 8.43984C23.9037 8.10698 23.6286 7.82959 23.2974 7.63471C22.9662 7.43982 22.5901 7.3341 22.2058 7.32784H7.97481L7.32981 4.81584C7.26467 4.57322 7.1193 4.35981 6.91738 4.21036C6.71545 4.06092 6.46888 3.98425 6.21781 3.99284H3.99481C3.69989 3.99284 3.41705 4.11 3.20851 4.31854C2.99997 4.52708 2.88281 4.80992 2.88281 5.10484C2.88281 5.39976 2.99997 5.6826 3.20851 5.89114C3.41705 6.09968 3.69989 6.21684 3.99481 6.21684H5.37281L8.44181 17.6238C8.50695 17.8665 8.65233 18.0799 8.85425 18.2293C9.05617 18.3788 9.30275 18.4554 9.55381 18.4468H19.5598C19.765 18.4461 19.966 18.3887 20.1405 18.2809C20.3151 18.173 20.4564 18.019 20.5488 17.8358L24.1958 10.5428C24.3536 10.2117 24.4271 9.84668 24.4096 9.48028C24.3922 9.11388 24.2844 8.75748 24.0958 8.44284V8.43984ZM18.8698 16.2228H10.3988L8.58281 9.55184H22.2058L18.8698 16.2228Z" fill="#00C793"/>
<path d="M9 24C10.1046 24 11 23.3284 11 22.5C11 21.6716 10.1046 21 9 21C7.89543 21 7 21.6716 7 22.5C7 23.3284 7.89543 24 9 24Z" fill="#00C793"/>
<path d="M20 24C21.1046 24 22 23.3284 22 22.5C22 21.6716 21.1046 21 20 21C18.8954 21 18 21.6716 18 22.5C18 23.3284 18.8954 24 20 24Z" fill="#00C793"/>
</svg>
