<svg width="50" height="50" viewBox="0 0 50 50" fill="none" xmlns="http://www.w3.org/2000/svg">
<path d="M45.5 0.5H4.5C2.29086 0.5 0.5 2.29086 0.5 4.5V45.5C0.5 47.7091 2.29086 49.5 4.5 49.5H45.5C47.7091 49.5 49.5 47.7091 49.5 45.5V4.5C49.5 2.29086 47.7091 0.5 45.5 0.5Z" stroke="#C3CCD9"/>
<path d="M30.0172 13C28.9503 12.9986 27.8973 13.2482 26.9394 13.7296C25.9814 14.211 25.1442 14.9113 24.4921 15.7767C23.9095 15.013 23.1816 14.3787 22.3526 13.9118C21.5235 13.445 20.6106 13.1553 19.6692 13.0607C18.7277 12.9662 17.7773 13.0685 16.8756 13.3615C15.9739 13.6544 15.1396 14.1321 14.4233 14.7652C13.7071 15.3984 13.1237 16.174 12.7086 17.045C12.2935 17.9161 12.0554 18.8643 12.0086 19.8324C11.9618 20.8006 12.1073 21.7683 12.4363 22.6771C12.7654 23.5859 13.2711 24.417 13.9228 25.1196L23.7778 35.2681L24.4875 36L25.1971 35.2681L34.8652 25.3123C35.5433 24.6471 36.0822 23.8475 36.4492 22.9622C36.8162 22.0768 37.0036 21.1244 36.9999 20.1625C36.9984 18.2638 36.2618 16.4433 34.9518 15.1005C33.6418 13.7577 31.8655 13.0022 30.0126 13H30.0172Z" fill="#E83535"/>
</svg>
