<svg width="26" height="24" viewBox="0 0 26 24" fill="none" xmlns="http://www.w3.org/2000/svg">
<path d="M18.0293 0.743806C17.0041 0.74198 15.9922 0.975421 15.0714 1.42618C14.1507 1.87694 13.3456 2.53309 12.7183 3.3439C12.1605 2.62106 11.4611 2.01955 10.663 1.57608C9.8649 1.13262 8.98476 0.856412 8.07634 0.764558C7.16792 0.672704 6.25032 0.766938 5.37958 1.04166C4.50884 1.31638 3.70323 1.76591 3.01201 2.36246C2.32078 2.959 1.75845 3.69019 1.35933 4.51138C0.96021 5.33258 0.732699 6.2265 0.690703 7.13858C0.648707 8.05066 0.7931 8.96167 1.11507 9.81607C1.43703 10.6705 1.92981 11.4503 2.56329 12.1078L12.0363 21.6278L12.7183 22.3149L13.4003 21.6278L22.6943 12.2887C23.346 11.6649 23.864 10.915 24.2168 10.0846C24.5696 9.25428 24.7497 8.36106 24.7463 7.45889C24.7444 5.67791 24.0362 3.97029 22.7769 2.71085C21.5177 1.45141 19.8103 0.742994 18.0293 0.740877V0.743806Z" stroke="#A8B1C1"/>
</svg>
