<svg width="28" height="28" viewBox="0 0 28 28" fill="none" xmlns="http://www.w3.org/2000/svg">
<path d="M14.0008 24.7628C13.683 24.7641 13.3777 24.6393 13.1518 24.4158L3.86178 15.1158C3.28081 14.5348 2.81996 13.8451 2.50554 13.086C2.19113 12.327 2.0293 11.5134 2.0293 10.6918C2.0293 9.87017 2.19113 9.0566 2.50554 8.29753C2.81996 7.53846 3.28081 6.84875 3.86178 6.26778C4.44275 5.68681 5.13245 5.22596 5.89153 4.91155C6.6506 4.59713 7.46416 4.4353 8.28578 4.4353C9.10739 4.4353 9.92096 4.59713 10.68 4.91155C11.4391 5.22596 12.1288 5.68681 12.7098 6.26778L14.0008 7.55878L15.2918 6.26778C16.4648 5.09393 18.0561 4.43416 19.7157 4.43359C21.3752 4.43303 22.9669 5.09173 24.1408 6.26478C25.3146 7.43783 25.9744 9.02915 25.975 10.6887C25.9755 12.3482 25.3168 13.9399 24.1438 15.1138L14.8538 24.4138C14.6279 24.6373 14.3226 24.7621 14.0048 24.7608L14.0008 24.7628ZM8.28478 6.82778C7.77864 6.82551 7.27708 6.92369 6.80915 7.11662C6.34122 7.30956 5.91622 7.59343 5.55878 7.95178C4.83674 8.67769 4.43142 9.65992 4.43142 10.6838C4.43142 11.7076 4.83674 12.6899 5.55878 13.4158L13.9998 21.8688L22.4438 13.4158C23.1658 12.6899 23.5711 11.7076 23.5711 10.6838C23.5711 9.65992 23.1658 8.67769 22.4438 7.95178C21.7068 7.25571 20.7315 6.86793 19.7178 6.86793C18.7041 6.86793 17.7287 7.25571 16.9918 7.95178L14.8518 10.1038C14.7403 10.2157 14.6078 10.3044 14.462 10.365C14.3161 10.4256 14.1597 10.4567 14.0018 10.4567C13.8438 10.4567 13.6875 10.4256 13.5416 10.365C13.3957 10.3044 13.2633 10.2157 13.1518 10.1038L11.0118 7.95178C10.6542 7.59331 10.2291 7.30937 9.76095 7.11643C9.29284 6.92349 8.79109 6.82538 8.28478 6.82778Z" fill="#00C793"/>
</svg>
