<svg width="22" height="20" viewBox="0 0 22 20" fill="none" xmlns="http://www.w3.org/2000/svg">
<path d="M15.53 5.31188e-06C14.6114 -0.00121709 13.7048 0.208555 12.8801 0.613042C12.0553 1.01753 11.3345 1.60594 10.773 2.33301C10.2714 1.69138 9.6447 1.15836 8.93092 0.766119C8.21714 0.373872 7.43116 0.1305 6.62059 0.0510307C5.81002 -0.0284387 4.99176 0.0575661 4.21539 0.303716C3.43902 0.549866 2.72072 0.951169 2.10402 1.48316C1.48731 2.01515 0.985045 2.66683 0.627668 3.39869C0.270292 4.13055 0.0652426 4.92727 0.0249461 5.74073C-0.0153504 6.55419 0.109952 7.36727 0.393248 8.13087C0.676543 8.89446 1.11194 9.59277 1.67305 10.1831L10.158 18.71L10.769 19.325L11.38 18.71L19.704 10.345C20.2879 9.78611 20.7519 9.11424 21.0679 8.37037C21.3838 7.62649 21.5452 6.82627 21.542 6.01807C21.5407 4.42275 20.9065 2.89315 19.7787 1.7649C18.6508 0.636648 17.1214 0.00185886 15.526 5.31188e-06H15.53Z" fill="#E83535"/>
</svg>
