<svg width="234" height="85" viewBox="0 0 234 85" fill="none" xmlns="http://www.w3.org/2000/svg">
<path d="M128.6 36H121.76L110.32 18.68V36H103.48V7.92H110.32L121.76 25.32V7.92H128.6V36ZM159.198 13.68V36H152.358V32.96C151.665 33.9467 150.718 34.7467 149.518 35.36C148.345 35.9467 147.038 36.24 145.598 36.24C143.891 36.24 142.385 35.8667 141.078 35.12C139.771 34.3467 138.758 33.24 138.038 31.8C137.318 30.36 136.958 28.6667 136.958 26.72V13.68H143.758V25.8C143.758 27.2933 144.145 28.4533 144.918 29.28C145.691 30.1067 146.731 30.52 148.038 30.52C149.371 30.52 150.425 30.1067 151.198 29.28C151.971 28.4533 152.358 27.2933 152.358 25.8V13.68H159.198ZM180.151 30.2V36H176.671C174.191 36 172.258 35.4 170.871 34.2C169.485 32.9733 168.791 30.9867 168.791 28.24V19.36H166.071V13.68H168.791V8.24H175.631V13.68H180.111V19.36H175.631V28.32C175.631 28.9867 175.791 29.4667 176.111 29.76C176.431 30.0533 176.965 30.2 177.711 30.2H180.151ZM194.401 17.4C195.201 16.1733 196.201 15.2133 197.401 14.52C198.601 13.8 199.935 13.44 201.401 13.44V20.68H199.521C197.815 20.68 196.535 21.0533 195.681 21.8C194.828 22.52 194.401 23.8 194.401 25.64V36H187.561V13.68H194.401V17.4ZM211.711 11.36C210.511 11.36 209.524 11.0133 208.751 10.32C208.004 9.6 207.631 8.72 207.631 7.68C207.631 6.61333 208.004 5.73333 208.751 5.04C209.524 4.32 210.511 3.96 211.711 3.96C212.884 3.96 213.844 4.32 214.591 5.04C215.364 5.73333 215.751 6.61333 215.751 7.68C215.751 8.72 215.364 9.6 214.591 10.32C213.844 11.0133 212.884 11.36 211.711 11.36ZM215.111 13.68V36H208.271V13.68H215.111ZM120.48 64.6C122.107 64.9467 123.413 65.76 124.4 67.04C125.387 68.2933 125.88 69.7333 125.88 71.36C125.88 73.7067 125.053 75.5733 123.4 76.96C121.773 78.32 119.493 79 116.56 79H103.48V50.92H116.12C118.973 50.92 121.2 51.5733 122.8 52.88C124.427 54.1867 125.24 55.96 125.24 58.2C125.24 59.8533 124.8 61.2267 123.92 62.32C123.067 63.4133 121.92 64.1733 120.48 64.6ZM110.32 62.28H114.8C115.92 62.28 116.773 62.04 117.36 61.56C117.973 61.0533 118.28 60.32 118.28 59.36C118.28 58.4 117.973 57.6667 117.36 57.16C116.773 56.6533 115.92 56.4 114.8 56.4H110.32V62.28ZM115.36 73.48C116.507 73.48 117.387 73.2267 118 72.72C118.64 72.1867 118.96 71.4267 118.96 70.44C118.96 69.4533 118.627 68.68 117.96 68.12C117.32 67.56 116.427 67.28 115.28 67.28H110.32V73.48H115.36ZM143.607 79.32C141.421 79.32 139.447 78.8533 137.687 77.92C135.954 76.9867 134.581 75.6533 133.567 73.92C132.581 72.1867 132.087 70.16 132.087 67.84C132.087 65.5467 132.594 63.5333 133.607 61.8C134.621 60.04 136.007 58.6933 137.767 57.76C139.527 56.8267 141.501 56.36 143.687 56.36C145.874 56.36 147.847 56.8267 149.607 57.76C151.367 58.6933 152.754 60.04 153.767 61.8C154.781 63.5333 155.287 65.5467 155.287 67.84C155.287 70.1333 154.767 72.16 153.727 73.92C152.714 75.6533 151.314 76.9867 149.527 77.92C147.767 78.8533 145.794 79.32 143.607 79.32ZM143.607 73.4C144.914 73.4 146.021 72.92 146.927 71.96C147.861 71 148.327 69.6267 148.327 67.84C148.327 66.0533 147.874 64.68 146.967 63.72C146.087 62.76 144.994 62.28 143.687 62.28C142.354 62.28 141.247 62.76 140.367 63.72C139.487 64.6533 139.047 66.0267 139.047 67.84C139.047 69.6267 139.474 71 140.327 71.96C141.207 72.92 142.301 73.4 143.607 73.4ZM172.676 79.32C170.489 79.32 168.516 78.8533 166.756 77.92C165.023 76.9867 163.649 75.6533 162.636 73.92C161.649 72.1867 161.156 70.16 161.156 67.84C161.156 65.5467 161.663 63.5333 162.676 61.8C163.689 60.04 165.076 58.6933 166.836 57.76C168.596 56.8267 170.569 56.36 172.756 56.36C174.943 56.36 176.916 56.8267 178.676 57.76C180.436 58.6933 181.823 60.04 182.836 61.8C183.849 63.5333 184.356 65.5467 184.356 67.84C184.356 70.1333 183.836 72.16 182.796 73.92C181.783 75.6533 180.383 76.9867 178.596 77.92C176.836 78.8533 174.863 79.32 172.676 79.32ZM172.676 73.4C173.983 73.4 175.089 72.92 175.996 71.96C176.929 71 177.396 69.6267 177.396 67.84C177.396 66.0533 176.943 64.68 176.036 63.72C175.156 62.76 174.063 62.28 172.756 62.28C171.423 62.28 170.316 62.76 169.436 63.72C168.556 64.6533 168.116 66.0267 168.116 67.84C168.116 69.6267 168.543 71 169.396 71.96C170.276 72.92 171.369 73.4 172.676 73.4ZM200.665 79.32C198.718 79.32 196.985 78.9867 195.465 78.32C193.945 77.6533 192.745 76.7467 191.865 75.6C190.985 74.4267 190.491 73.12 190.385 71.68H197.145C197.225 72.4533 197.585 73.08 198.225 73.56C198.865 74.04 199.651 74.28 200.585 74.28C201.438 74.28 202.091 74.12 202.545 73.8C203.025 73.4533 203.265 73.0133 203.265 72.48C203.265 71.84 202.931 71.3733 202.265 71.08C201.598 70.76 200.518 70.4133 199.025 70.04C197.425 69.6667 196.091 69.28 195.025 68.88C193.958 68.4533 193.038 67.8 192.265 66.92C191.491 66.0133 191.105 64.8 191.105 63.28C191.105 62 191.451 60.84 192.145 59.8C192.865 58.7333 193.905 57.8933 195.265 57.28C196.651 56.6667 198.291 56.36 200.185 56.36C202.985 56.36 205.185 57.0533 206.785 58.44C208.411 59.8267 209.345 61.6667 209.585 63.96H203.265C203.158 63.1867 202.811 62.5733 202.225 62.12C201.665 61.6667 200.918 61.44 199.985 61.44C199.185 61.44 198.571 61.6 198.145 61.92C197.718 62.2133 197.505 62.6267 197.505 63.16C197.505 63.8 197.838 64.28 198.505 64.6C199.198 64.92 200.265 65.24 201.705 65.56C203.358 65.9867 204.705 66.4133 205.745 66.84C206.785 67.24 207.691 67.9067 208.465 68.84C209.265 69.7467 209.678 70.9733 209.705 72.52C209.705 73.8267 209.331 75 208.585 76.04C207.865 77.0533 206.811 77.8533 205.425 78.44C204.065 79.0267 202.478 79.32 200.665 79.32ZM229.929 73.2V79H226.449C223.969 79 222.036 78.4 220.649 77.2C219.263 75.9733 218.569 73.9867 218.569 71.24V62.36H215.849V56.68H218.569V51.24H225.409V56.68H229.889V62.36H225.409V71.32C225.409 71.9867 225.569 72.4667 225.889 72.76C226.209 73.0533 226.743 73.2 227.489 73.2H229.929Z" fill="#1A2744"/>
<path d="M8.87688 58.1145C8.63951 58.6134 8.54362 58.9621 8.33454 59.2299C7.83149 59.8716 7.27028 60.472 6.74523 61.0974C6.61275 61.2545 6.50672 61.4297 6.43083 61.6168C5.81617 63.1767 6.32393 64.248 7.93682 64.975C9.17557 65.5327 10.4709 65.5872 11.8056 65.5357C14.5943 65.4268 17.1708 64.563 19.6656 63.5167C21.3571 62.8074 22.9527 61.8906 24.5546 61.0076C26.7334 59.8039 28.6686 58.2911 30.5283 56.6915C32.7291 54.8034 34.5872 52.6741 35.7584 50.0841C36.5444 48.3447 36.4438 46.5817 35.5226 44.9041C34.2901 42.66 32.7684 40.5306 31.7938 38.1967C30.4858 35.0637 30.9118 31.9704 33.2086 29.2421C35.1594 26.9214 37.7769 25.5985 40.8156 25.0246C41.7588 24.845 42.7916 25.0702 43.7725 24.9922C45.2895 24.87 46.6022 25.3924 47.756 26.1562C48.7681 26.8079 49.6574 27.6125 50.3876 28.5372C51.5744 30.1015 52.1168 31.9115 52.0633 33.8702C52.0539 34.2322 52.3573 34.6634 52.6418 34.9562C53.2706 35.6067 53.9969 36.1688 54.6399 36.806C55.231 37.3946 55.1791 38.0054 54.5015 38.5145C54.0299 38.8662 53.9781 39.265 54.0504 39.786C54.1117 40.2348 54.0142 40.7028 53.9765 41.1619C53.9765 41.2311 53.8602 41.3341 53.8806 41.3576C54.4984 42.0551 53.9026 42.6497 53.7375 43.2957C53.6762 43.54 53.8539 43.8534 53.9686 44.1183C54.3522 45.0012 54.1887 45.737 53.2534 46.1388C52.318 46.5405 51.3229 46.7274 50.3483 46.9952C50.1581 47.0482 49.949 47.0394 49.7619 47.0953C48.7967 47.3896 48.3345 47.9135 48.421 48.6066C48.5074 49.2997 49.251 49.931 50.0873 50.0429C50.3624 50.0811 50.6297 50.1577 50.9048 50.19C51.1531 50.2209 51.4047 50.215 51.6908 50.2268C51.3229 51.0421 50.5621 51.2569 49.8169 51.5056C48.5593 51.9221 47.3017 52.3282 46.0614 52.7859C45.4499 53.011 45.0238 53.426 45.1182 54.1839C45.9639 53.8734 46.7546 53.5173 47.5862 53.3009C48.509 53.0552 49.501 53.0199 50.4033 52.7314C51.4853 52.3645 52.5363 51.9217 53.5473 51.407C53.7721 51.2981 53.8617 50.8934 53.9561 50.608C54.367 49.2796 55.2634 48.1285 56.4886 47.3558C58.8466 45.8503 61.3052 45.6649 63.9462 46.4978C64.5514 46.6891 65.2038 46.7509 65.8562 46.8775C65.5418 48.1813 65.2589 49.2865 65.0262 50.399C64.9429 50.8007 64.7574 51.3482 65.3406 51.3452C66.2477 49.9178 67.0698 48.5993 67.9171 47.3013C68.2315 46.8289 68.5365 46.3168 68.9767 45.9681C71.3583 44.0844 74.1093 43.59 77.0946 44.314C79.0266 44.7834 80.9303 45.3574 82.5117 46.7598C82.8953 45.8194 82.2366 45.3309 81.7635 45.0101C80.6882 44.2743 79.4699 43.7298 78.3349 43.0705C77.5222 42.5982 77.1606 41.805 76.9955 40.9779C76.5711 38.85 75.7599 36.8914 74.3231 35.1858C73.8028 34.5707 73.3013 33.932 72.6945 33.4008C72.3502 33.0976 71.8267 32.9461 71.3567 32.8121C70.7845 32.64 70.4135 32.9063 70.3145 33.4449C70.1573 34.2675 69.4011 34.2617 68.8179 34.3279C68.5664 34.3558 68.1734 33.9173 67.9832 33.6142C67.5666 32.9475 67.2396 32.2323 66.8827 31.5363L66.6973 31.5937C66.9299 32.3 67.1358 33.0152 67.4078 33.7098C67.5854 34.1645 67.9046 34.6384 67.4314 35.0254C67.2034 35.2108 66.735 35.2609 66.4127 35.1991C65.8326 35.0902 65.5701 34.6649 65.4695 34.1101C65.3296 33.3537 65.1095 32.6105 64.9224 31.8615L64.6411 31.9042C64.7322 32.3309 64.8171 32.7592 64.9146 33.183C64.9806 33.4773 65.0718 33.7495 65.141 34.0365C65.3343 34.8738 65.141 35.2873 64.5373 35.3756C63.8786 35.4713 63.1775 34.9592 63.1225 34.272C63.0675 33.6613 63.0989 33.0432 63.0879 32.4295C63.0879 32.1838 63.0659 31.9366 63.0549 31.6938H62.8474C62.7531 32.481 62.6603 33.2683 62.5597 34.116C61.8334 34.5486 61.6165 34.5104 61.1732 33.7966C60.241 32.3118 60.2929 30.5283 61.4656 29.4025C62.0158 28.8742 62.7861 28.5196 63.5092 28.187C65.4837 27.2908 67.5964 26.7875 69.7422 26.4108C70.9082 26.2077 72.0938 26.1209 73.2793 26.1518C74.6721 26.1871 75.7395 27.0274 76.645 27.8927C78.0001 29.1847 79.6208 30.1486 81.0733 31.3156C82.4614 32.4325 83.947 33.4435 85.3319 34.5648C85.9277 35.0475 86.3758 35.6891 86.893 36.2571C86.9603 36.3443 87.0427 36.4203 87.1366 36.4823C88.6237 37.2946 89.2981 38.8206 90.518 39.8772C91.0164 40.3098 91.2852 40.9735 91.6546 41.5327C92.2425 42.4245 92.8666 43.2986 93.4058 44.2125C94.3019 45.7311 94.1447 47.2807 93.2015 48.6978C92.1466 50.2857 90.9896 51.8102 89.3595 52.9728C88.4382 53.6306 87.6915 54.5091 86.7452 55.1287C85.2628 56.0984 83.7725 57.1447 82.1219 57.7775C77.8413 59.4374 73.405 60.2365 68.7786 59.0592C67.978 58.8697 67.1651 58.7286 66.3451 58.6369C65.9801 58.5918 65.6089 58.6215 65.2573 58.7237C65.0781 58.7782 64.9083 59.046 64.8674 59.2417C64.8501 59.3271 65.152 59.536 65.339 59.5787C65.8374 59.6861 66.3781 59.6611 66.8529 59.82C67.7584 60.1067 68.637 60.463 69.4797 60.8855C70.0708 61.1945 70.0566 61.6698 69.4797 62.0936C68.5365 62.7941 67.576 63.5152 66.5369 64.0876C63.9053 65.5401 61.2565 66.9705 58.5526 68.3022C56.8061 69.1431 55.0125 69.8952 53.1795 70.5552C50.005 71.7099 46.8212 72.8224 43.6279 73.8928C42.309 74.3342 40.9052 74.5535 39.5517 74.9096C38.0032 75.3187 36.4784 75.8205 34.9189 76.1855C33.295 76.5666 31.6507 76.9036 29.9969 77.1376C26.9268 77.5791 23.8519 78.0029 20.7645 78.2825C16.7511 78.646 12.8116 78.1751 8.92562 77.145C6.66034 76.546 4.76134 75.3879 2.92366 74.1091C0.509037 72.4285 -0.701416 68.4832 0.424148 65.8609C0.812436 64.9559 1.45225 64.1406 1.99617 63.2989C2.35773 62.7426 2.65327 62.0833 3.16889 61.6919C4.72833 60.5146 6.37581 59.433 8.00127 58.3308C8.17419 58.2204 8.41628 58.2234 8.87688 58.1145ZM45.3838 58.141C44.0398 58.9695 42.8812 59.7597 41.644 60.4278C38.8914 61.9156 36.0901 63.3312 33.0781 64.3172C30.8867 65.0339 28.667 65.6755 26.4536 66.3318C22.7499 67.4311 18.9692 68.1771 15.0848 68.4214C12.9956 68.5509 10.9158 68.4759 8.90832 67.8784C7.40233 67.4369 6.03153 66.7291 5.21094 65.3841C4.93741 64.9323 4.81479 64.4011 4.62301 63.9052L4.37463 63.9449C4.48781 64.8558 4.4831 65.7976 4.73934 66.6717C5.33041 68.6834 7.25456 69.2337 9.06867 69.7105C12.0256 70.4919 15.0816 70.3727 18.0748 69.9548C21.9215 69.4162 25.7682 68.7996 29.442 67.5193C31.0628 66.9543 32.7432 66.504 34.287 65.7961C37.3335 64.4011 40.4713 63.1193 42.9551 60.8472C44.186 60.5529 44.5271 59.4345 45.2486 58.6752C45.3524 58.5722 45.3351 58.3514 45.3838 58.141ZM40.039 67.6768C39.9667 67.5694 39.8944 67.462 39.8205 67.3545C39.5815 67.4517 39.3331 67.5341 39.1036 67.6488C37.8319 68.286 36.5884 68.963 35.2946 69.5693C33.0765 70.617 30.6918 71.188 28.285 71.7295C24.3974 72.6037 20.4847 73.2688 16.4823 73.4145C12.5428 73.5617 8.74641 73.0495 5.24552 71.2233C5.04191 71.1357 4.86112 71.0077 4.71575 70.8481C3.94861 69.8297 3.3764 68.7319 3.25535 67.3501C2.73973 69.244 2.88278 70.8922 4.39035 72.2343C5.09776 72.8627 5.80516 73.5043 6.61475 74.012C7.0219 74.268 7.63499 74.2342 8.15376 74.3386C9.70534 74.6506 11.2412 75.0744 12.8101 75.2599C17.7572 75.8308 22.5849 74.9287 27.378 73.9575C29.027 73.622 30.61 72.9627 32.1899 72.3726C34.4505 71.5279 36.7205 70.6877 38.4261 68.935C38.8961 68.4553 39.4982 68.0933 40.039 67.6768Z" fill="#00C793"/>
<path d="M66.3803 24.6477C64.7219 25.2216 63.1074 25.7676 61.5071 26.3459C61.1616 26.4726 60.8452 26.6599 60.5749 26.8977C58.3741 28.8446 57.1589 30.6194 58.2326 33.2594C58.8614 34.7987 59.9445 36.2025 61.6737 36.8C63.4485 37.4166 65.3129 37.8301 67.2544 37.577C67.3673 37.566 67.4811 37.566 67.5939 37.577C67.6692 37.5979 67.7411 37.6281 67.8077 37.6668C67.8077 39.5798 67.8706 41.5297 67.7621 43.4677C67.7354 43.9224 67.1333 44.3507 66.7733 44.8083C63.4328 43.5339 60.1379 43.1131 56.8288 44.4184C56.8288 42.9777 56.8193 41.5458 56.8398 40.1125C56.8657 39.9057 56.9522 39.7097 57.0897 39.546C57.772 38.6115 57.8553 37.6329 57.3853 36.6028C56.9278 35.6021 56.4263 34.6383 55.3133 34.1011C54.672 33.7892 54.5069 33.2491 54.5053 32.5677C54.5149 30.3373 53.6309 28.1845 52.0278 26.5343C48.1449 22.4624 43.278 21.5191 37.7005 23.3748C35.629 24.0505 33.7636 25.1867 32.2644 26.6858C28.8657 30.1176 27.1569 34.029 29.4788 39.2723C30.3528 41.2456 31.6325 43.0616 32.725 44.9511C33.8176 46.8406 34.2137 48.3813 32.725 50.4666C32.2015 51.2023 31.8636 52.0588 31.2819 52.7416C30.7003 53.4244 29.93 53.9689 29.2241 54.5561C27.8926 55.6612 26.6586 56.9106 25.1856 57.8112C23.2269 59.012 21.3939 60.4306 19.1255 61.1752C18.165 61.4902 17.3413 62.2053 16.3729 62.454C14.9361 62.7984 13.4348 62.9029 11.8644 63.131V62.2701C11.8644 51.7409 11.8471 41.2103 11.8769 30.6812C11.8769 28.1368 12.8107 25.8117 13.8718 23.4704C14.6578 21.7222 16.0868 20.4934 17.2029 19.0204C17.6274 18.4627 18.3552 18.1051 18.9463 17.6533C21.713 19.3853 24.8398 20.0328 28.0467 20.5317C32.5851 21.2395 37.1518 21.0482 41.7028 20.9555C44.218 20.904 46.7097 20.3669 49.2076 20.0078C49.7625 19.9298 50.5124 19.7135 50.3521 19.094C50.2074 18.5362 49.467 18.6289 48.8744 18.6716C45.6077 18.9056 42.341 19.2602 39.0713 19.2705C35.7181 19.2823 32.3572 19.0071 29.0103 18.7423C27.4698 18.6216 25.9418 18.2758 24.4311 17.9432C23.0053 17.6498 21.7167 16.9384 20.7525 15.9124C20.5593 15.7261 20.4362 15.4858 20.402 15.2281C20.3768 12.4836 20.3863 9.73913 20.3863 6.99758C24.648 8.46916 29.0009 9.17993 33.4607 9.45806C37.3337 9.71286 41.2232 9.64194 45.0826 9.24615C46.2412 9.12254 47.3857 8.89739 48.5411 8.71344C49.0127 8.63692 49.4136 8.36762 49.2453 7.92467C49.173 7.73337 48.5992 7.67892 48.2424 7.62153C48.027 7.58768 47.7928 7.68775 47.5664 7.69217C44.3721 7.74661 41.1746 7.87464 37.9771 7.82314C35.1051 7.77605 32.2235 7.64066 29.3688 7.34487C26.514 7.04909 23.7394 6.36774 21.1581 5.11543C20.2841 4.69162 20.0577 3.60853 20.894 3.08318C21.8078 2.52278 22.8003 2.08397 23.8431 1.77936C27.1039 0.821598 30.4884 0.282495 33.904 0.176811C37.1251 0.0546694 40.3493 -0.0615853 43.5719 0.0370105C47.8698 0.167981 52.1489 0.57708 56.2597 1.89856C56.8429 2.08692 57.4529 2.22231 58.0015 2.47689C58.8252 2.86097 59.4006 3.40398 59.3896 4.38994C59.3487 8.34359 59.3487 12.2977 59.3896 16.2523C59.3896 16.557 59.7543 16.919 60.0451 17.1471C60.6063 17.5885 61.2807 17.9064 61.8246 18.3626C62.323 18.7805 62.7223 19.3029 63.1436 19.7959C63.8321 20.6023 64.5709 21.3823 65.1589 22.249C65.6604 22.9951 65.9795 23.8398 66.3803 24.6477Z" fill="#1A2744"/>
<path d="M16.3468 80.6907C20.3004 80.8746 24.2069 80.4537 28.0961 79.899C32.6221 79.2504 37.08 78.2382 41.4205 76.8734C44.1055 76.0331 46.8031 75.2223 49.4519 74.2937C51.9671 73.4108 54.4101 72.3924 56.8923 71.4462C57.6924 71.1416 58.5397 70.937 59.3132 70.5839C60.3931 70.0923 61.3568 69.3242 62.4871 68.9975C64.4002 68.4412 65.7506 67.0844 67.4814 66.2883C67.5943 66.262 67.7095 66.2453 67.8256 66.2383V67.4818C67.8256 69.0578 67.7879 70.6339 67.8256 72.2085C67.8822 74.2407 67.1733 76.0228 66.1577 77.7916C65.1564 79.534 63.6551 80.7584 61.962 81.7782C61.0392 82.3344 59.9074 82.6331 58.829 82.9083C56.7492 83.441 54.66 83.9796 52.5409 84.3196C50.6161 84.607 48.673 84.7746 46.7245 84.8214C43.3336 84.9406 39.9381 85.0097 36.5456 84.9936C34.1232 84.9833 31.6724 84.9582 29.2861 84.6566C25.7144 84.2151 22.1538 83.5926 18.8384 82.1549C17.9628 81.7752 17.0998 81.372 16.2305 80.9776C16.2729 80.8834 16.3091 80.7848 16.3468 80.6907Z" fill="#00C793"/>
</svg>
