<svg width="22" height="23" viewBox="0 0 22 23" fill="none" xmlns="http://www.w3.org/2000/svg">
<path d="M20.1799 11.2846C20.1363 11.1959 20.1136 11.0984 20.1136 10.9996C20.1136 10.9007 20.1363 10.8032 20.1799 10.7146L20.9999 9.03656C21.2202 8.5901 21.2574 8.07529 21.1037 7.60179C20.95 7.12829 20.6174 6.73352 20.1769 6.50157L18.5299 5.62457C18.4425 5.57852 18.3669 5.513 18.3088 5.43307C18.2507 5.35314 18.2117 5.26093 18.1949 5.16357L17.8719 3.32357C17.7877 2.83271 17.515 2.39418 17.1121 2.10146C16.7091 1.80874 16.2078 1.68498 15.7149 1.75657L13.8649 2.01857C13.7672 2.0327 13.6674 2.02418 13.5735 1.99367C13.4795 1.96315 13.3938 1.91146 13.3229 1.84257L11.9769 0.542565C11.6202 0.194701 11.1417 0 10.6434 0C10.1452 0 9.66666 0.194701 9.30994 0.542565L7.96694 1.84257C7.89611 1.91146 7.81041 1.96315 7.71643 1.99367C7.62246 2.02418 7.52273 2.0327 7.42494 2.01857L5.57494 1.75657C5.08208 1.68498 4.58074 1.80874 4.17781 2.10146C3.77487 2.39418 3.50221 2.83271 3.41794 3.32357L3.09494 5.16357C3.07814 5.26093 3.0392 5.35314 2.98112 5.43307C2.92303 5.513 2.84736 5.57852 2.75994 5.62457L1.10994 6.50157C0.669019 6.73335 0.336092 7.12822 0.18216 7.60198C0.0282269 8.07573 0.0654684 8.59088 0.285942 9.03757L1.10594 10.7156C1.14961 10.8042 1.17232 10.9017 1.17232 11.0006C1.17232 11.0994 1.14961 11.1969 1.10594 11.2856L0.285942 12.9636C0.0648504 13.4105 0.0272734 13.9261 0.181238 14.4003C0.335203 14.8745 0.668504 15.2698 1.10994 15.5016L2.75994 16.3776C2.84736 16.4236 2.92303 16.4891 2.98112 16.5691C3.0392 16.649 3.07814 16.7412 3.09494 16.8386L3.41794 18.6786C3.49396 19.1228 3.72471 19.5258 4.06934 19.8163C4.41396 20.1067 4.85024 20.2659 5.30094 20.2656C5.39294 20.2657 5.48483 20.2593 5.57594 20.2466L7.42594 19.9846C7.52373 19.9704 7.62348 19.9788 7.71747 20.0094C7.81145 20.0399 7.89716 20.0916 7.96794 20.1606L9.31094 21.4606C9.66766 21.8084 10.1462 22.0031 10.6444 22.0031C11.1427 22.0031 11.6212 21.8084 11.9779 21.4606L13.3209 20.1606C13.3918 20.0917 13.4775 20.04 13.5715 20.0095C13.6654 19.9789 13.7652 19.9704 13.8629 19.9846L15.7129 20.2466C16.2058 20.3182 16.7071 20.1944 17.1101 19.9017C17.513 19.609 17.7857 19.1704 17.8699 18.6796L18.1929 16.8396C18.2097 16.7422 18.2487 16.65 18.3068 16.5701C18.3649 16.4901 18.4405 16.4246 18.5279 16.3786L20.1779 15.5026C20.6189 15.2708 20.9518 14.8759 21.1057 14.4022C21.2597 13.9284 21.2224 13.4133 21.0019 12.9666L20.1799 11.2846ZM19.5799 14.3786L17.9299 15.2546C17.6715 15.3906 17.4478 15.5843 17.2761 15.8207C17.1044 16.057 16.9894 16.3297 16.9399 16.6176L16.6169 18.4576C16.5884 18.6237 16.4962 18.7721 16.3598 18.8711C16.2234 18.9701 16.0537 19.0119 15.8869 18.9876L14.0369 18.7256C13.7482 18.6836 13.4537 18.7086 13.1763 18.7988C12.8988 18.889 12.6458 19.0419 12.4369 19.2456L11.0939 20.5456C10.9734 20.6626 10.812 20.7281 10.6439 20.7281C10.4759 20.7281 10.3145 20.6626 10.1939 20.5456L8.85094 19.2456C8.49552 18.8988 8.01848 18.705 7.52194 18.7056C7.43061 18.7055 7.33938 18.7118 7.24894 18.7246L5.39894 18.9866C5.23217 19.0109 5.06249 18.9691 4.92611 18.8701C4.78973 18.7711 4.69744 18.6227 4.66894 18.4566L4.34594 16.6166C4.29647 16.3287 4.18146 16.056 4.00979 15.8197C3.83813 15.5833 3.61441 15.3896 3.35594 15.2536L1.70594 14.3776C1.55669 14.2992 1.44397 14.1656 1.39184 14.0053C1.33972 13.845 1.35231 13.6707 1.42694 13.5196L2.24694 11.8416C2.376 11.5796 2.44312 11.2916 2.44312 10.9996C2.44312 10.7076 2.376 10.4195 2.24694 10.1576L1.42994 8.47857C1.35531 8.32742 1.34272 8.15309 1.39484 7.99279C1.44697 7.83249 1.55969 7.69891 1.70894 7.62057L3.35894 6.74457C3.61741 6.60848 3.84113 6.41478 4.01279 6.17844C4.18445 5.9421 4.29947 5.66945 4.34894 5.38157L4.67194 3.54157C4.70044 3.37545 4.79273 3.22706 4.92911 3.12804C5.06549 3.02902 5.23517 2.98722 5.40194 3.01157L7.25194 3.27357C7.54065 3.31517 7.83505 3.28992 8.11246 3.19976C8.38986 3.1096 8.64286 2.95695 8.85194 2.75357L10.1949 1.45357C10.3155 1.33652 10.4769 1.27105 10.6449 1.27105C10.813 1.27105 10.9744 1.33652 11.0949 1.45357L12.4379 2.75357C12.647 2.95695 12.9 3.1096 13.1774 3.19976C13.4548 3.28992 13.7492 3.31517 14.0379 3.27357L15.8879 3.01157C16.0547 2.98722 16.2244 3.02902 16.3608 3.12804C16.4972 3.22706 16.5894 3.37545 16.6179 3.54157L16.9409 5.38157C16.9904 5.66945 17.1054 5.9421 17.2771 6.17844C17.4488 6.41478 17.6725 6.60848 17.9309 6.74457L19.5809 7.62057C19.7302 7.69891 19.8429 7.83249 19.895 7.99279C19.9472 8.15309 19.9346 8.32742 19.8599 8.47857L19.0399 10.1566C18.9109 10.4185 18.8438 10.7066 18.8438 10.9986C18.8438 11.2906 18.9109 11.5786 19.0399 11.8406L19.8599 13.5186C19.935 13.6697 19.9479 13.8442 19.8959 14.0047C19.844 14.1652 19.7313 14.299 19.5819 14.3776L19.5799 14.3786Z" fill="#F35C9D"/>
<path d="M15.2788 6.36317C15.2198 6.30379 15.1497 6.25666 15.0725 6.2245C14.9953 6.19234 14.9124 6.17578 14.8288 6.17578C14.7451 6.17578 14.6623 6.19234 14.585 6.2245C14.5078 6.25666 14.4377 6.30379 14.3788 6.36317L6.00476 14.7372C5.94567 14.7963 5.89879 14.8664 5.86681 14.9436C5.83482 15.0208 5.81836 15.1036 5.81836 15.1872C5.81836 15.2707 5.83482 15.3535 5.86681 15.4307C5.89879 15.5079 5.94567 15.5781 6.00476 15.6372C6.06386 15.6963 6.13402 15.7431 6.21123 15.7751C6.28844 15.8071 6.37118 15.8236 6.45476 15.8236C6.53833 15.8236 6.62109 15.8071 6.6983 15.7751C6.77551 15.7431 6.84566 15.6963 6.90475 15.6372L15.2788 7.26317C15.3381 7.20423 15.3853 7.13413 15.4174 7.0569C15.4496 6.97967 15.4662 6.89683 15.4662 6.81317C15.4662 6.72951 15.4496 6.64668 15.4174 6.56944C15.3853 6.49221 15.3381 6.42211 15.2788 6.36317Z" fill="#F35C9D"/>
<path d="M8.1053 5.28906C7.64527 5.28906 7.19555 5.42548 6.81304 5.68107C6.43053 5.93665 6.1324 6.29992 5.95635 6.72495C5.7803 7.14997 5.73424 7.61765 5.82399 8.06885C5.91374 8.52005 6.13528 8.9345 6.46057 9.2598C6.78587 9.58509 7.20032 9.80662 7.65152 9.89637C8.10272 9.98612 8.57041 9.94006 8.99543 9.76401C9.42045 9.58796 9.78371 9.28983 10.0393 8.90732C10.2949 8.52481 10.4313 8.07511 10.4313 7.61507C10.4305 6.99842 10.1852 6.40725 9.74915 5.97121C9.31311 5.53518 8.72195 5.28986 8.1053 5.28906ZM8.1053 8.67207C7.89625 8.67207 7.69188 8.61007 7.51805 8.49393C7.34423 8.37778 7.20876 8.2127 7.12876 8.01956C7.04876 7.82642 7.02782 7.61389 7.06861 7.40885C7.10939 7.20381 7.21006 7.01548 7.35788 6.86765C7.50571 6.71983 7.69404 6.61916 7.89908 6.57838C8.10412 6.53759 8.31666 6.55853 8.5098 6.63853C8.70294 6.71853 8.86802 6.854 8.98416 7.02782C9.10031 7.20165 9.1623 7.40601 9.1623 7.61507C9.16203 7.89541 9.05062 8.16421 8.85248 8.36254C8.65434 8.56087 8.38565 8.67154 8.1053 8.67207Z" fill="#F35C9D"/>
<path d="M13.1814 12.0547C12.7214 12.0547 12.2717 12.1911 11.8892 12.4467C11.5067 12.7023 11.2086 13.0655 11.0325 13.4906C10.8565 13.9156 10.8104 14.3833 10.9002 14.8345C10.9899 15.2857 11.2114 15.7001 11.5367 16.0254C11.862 16.3507 12.2765 16.5723 12.7277 16.662C13.1789 16.7518 13.6466 16.7057 14.0716 16.5296C14.4966 16.3536 14.8599 16.0555 15.1155 15.673C15.3711 15.2905 15.5075 14.8407 15.5075 14.3807C15.5067 13.7641 15.2613 13.1729 14.8253 12.7368C14.3893 12.3008 13.7981 12.0555 13.1814 12.0547ZM13.1814 15.4377C12.9724 15.4377 12.768 15.3757 12.5942 15.2596C12.4204 15.1434 12.2849 14.9783 12.2049 14.7852C12.1249 14.592 12.104 14.3795 12.1448 14.1745C12.1855 13.9695 12.2862 13.7811 12.434 13.6333C12.5819 13.4855 12.7702 13.3848 12.9752 13.344C13.1803 13.3032 13.3928 13.3242 13.586 13.4042C13.7791 13.4842 13.9442 13.6196 14.0603 13.7935C14.1765 13.9673 14.2385 14.1717 14.2385 14.3807C14.2379 14.6609 14.1264 14.9294 13.9283 15.1275C13.7302 15.3256 13.4616 15.4372 13.1814 15.4377Z" fill="#F35C9D"/>
</svg>
