<svg width="29" height="29" viewBox="0 0 29 29" fill="none" xmlns="http://www.w3.org/2000/svg">
<path d="M24.7963 23.0594L20.8413 19.1154C22.1174 17.4897 22.8099 15.4821 22.8073 13.4154C22.8073 11.5748 22.2615 9.77561 21.239 8.24524C20.2164 6.71488 18.763 5.52211 17.0626 4.81776C15.3621 4.11341 13.491 3.92912 11.6858 4.28819C9.88062 4.64727 8.22245 5.53358 6.92098 6.83504C5.61951 8.13651 4.7332 9.79468 4.37413 11.5999C4.01505 13.4051 4.19934 15.2762 4.90369 16.9766C5.60804 18.6771 6.80082 20.1305 8.33118 21.153C9.86154 22.1756 11.6608 22.7214 13.5013 22.7214C15.568 22.7239 17.5756 22.0315 19.2013 20.7554L23.1463 24.7094C23.2527 24.8262 23.3816 24.9202 23.5254 24.9857C23.6691 25.0512 23.8247 25.0869 23.9826 25.0906C24.1405 25.0943 24.2976 25.0659 24.4442 25.0072C24.5909 24.9484 24.7241 24.8605 24.8358 24.7488C24.9475 24.6371 25.0354 24.5039 25.0941 24.3573C25.1529 24.2106 25.1812 24.0536 25.1776 23.8957C25.1739 23.7377 25.1382 23.5822 25.0727 23.4384C25.0071 23.2947 24.9131 23.1657 24.7963 23.0594ZM6.52332 13.4154C6.52332 12.0349 6.93269 10.6854 7.69966 9.5375C8.46663 8.38964 9.55676 7.495 10.8322 6.9667C12.1076 6.4384 13.5111 6.30017 14.865 6.5695C16.219 6.83882 17.4628 7.5036 18.4389 8.47977C19.4151 9.45594 20.0799 10.6997 20.3492 12.0536C20.6185 13.4076 20.4803 14.8111 19.952 16.0865C19.4237 17.3619 18.5291 18.4521 17.3812 19.219C16.2333 19.986 14.8838 20.3954 13.5033 20.3954C11.6521 20.3954 9.87672 19.66 8.56771 18.351C7.25871 17.042 6.52332 15.2666 6.52332 13.4154Z" fill="#3D8F8A"/>
</svg>
