<svg width="50" height="50" viewBox="0 0 50 50" fill="none" xmlns="http://www.w3.org/2000/svg">
<path d="M45.5 0.5H4.5C2.29086 0.5 0.5 2.29086 0.5 4.5V45.5C0.5 47.7091 2.29086 49.5 4.5 49.5H45.5C47.7091 49.5 49.5 47.7091 49.5 45.5V4.5C49.5 2.29086 47.7091 0.5 45.5 0.5Z" stroke="#C3CCD9"/>
<path d="M30.8593 28.8423C30.0918 28.8456 29.3533 29.1351 28.7887 29.6539L21.2566 25.2771C21.3832 24.7933 21.3832 24.2851 21.2566 23.8013L28.6996 19.4673C29.2325 19.9587 29.9185 20.2519 30.6425 20.2977C31.3664 20.3436 32.0841 20.1392 32.6749 19.7189C33.2656 19.2987 33.6934 18.6882 33.8863 17.9902C34.0792 17.2922 34.0255 16.5491 33.7341 15.886C33.4427 15.2228 32.9315 14.6801 32.2864 14.3489C31.6413 14.0178 30.9016 13.9184 30.1918 14.0676C29.4819 14.2168 28.8452 14.6054 28.3886 15.1681C27.932 15.7308 27.6834 16.4332 27.6847 17.1573C27.6895 17.4062 27.7212 17.6538 27.7794 17.8958L20.3363 22.2298C19.8854 21.8079 19.3208 21.5267 18.7118 21.421C18.1029 21.3153 17.4763 21.3897 16.9092 21.635C16.3421 21.8802 15.8592 22.2857 15.52 22.8014C15.1807 23.3171 15 23.9206 15 24.5375C15 25.1545 15.1807 25.758 15.52 26.2737C15.8592 26.7894 16.3421 27.1949 16.9092 27.4401C17.4763 27.6854 18.1029 27.7597 18.7118 27.6541C19.3208 27.5484 19.8854 27.2672 20.3363 26.8453L27.8583 31.2356C27.8036 31.4601 27.7752 31.6901 27.7738 31.9211C27.7738 32.5301 27.9547 33.1254 28.2936 33.6317C28.6325 34.138 29.1142 34.5326 29.6778 34.7656C30.2414 34.9987 30.8615 35.0596 31.4599 34.9408C32.0582 34.822 32.6077 34.5288 33.0391 34.0982C33.4705 33.6676 33.7642 33.119 33.8832 32.5218C34.0022 31.9246 33.9412 31.3055 33.7077 30.7429C33.4743 30.1803 33.0789 29.6995 32.5717 29.3612C32.0645 29.0229 31.4682 28.8423 30.8581 28.8423H30.8593Z" fill="#6C7B97"/>
</svg>
