<svg width="40" height="40" viewBox="0 0 40 40" fill="none" xmlns="http://www.w3.org/2000/svg">
<path d="M30.6667 4C29.2522 4 27.8956 4.5619 26.8954 5.5621C25.8952 6.56229 25.3333 7.91885 25.3333 9.33333C25.3357 9.70822 25.3776 10.0818 25.4583 10.4479L13.349 16.5026C12.8495 15.9276 12.2327 15.4662 11.5401 15.1496C10.8474 14.8329 10.095 14.6682 9.33333 14.6667C7.91885 14.6667 6.56229 15.2286 5.5621 16.2288C4.5619 17.229 4 18.5855 4 20C4 21.4145 4.5619 22.771 5.5621 23.7712C6.56229 24.7714 7.91885 25.3333 9.33333 25.3333C10.0952 25.3325 10.848 25.1684 11.5411 24.8522C12.2343 24.5359 12.8516 24.0749 13.3516 23.5L25.4531 29.5521C25.3742 29.9184 25.334 30.292 25.3333 30.6667C25.3333 32.0812 25.8952 33.4377 26.8954 34.4379C27.8956 35.4381 29.2522 36 30.6667 36C32.0812 36 33.4377 35.4381 34.4379 34.4379C35.4381 33.4377 36 32.0812 36 30.6667C36 29.2522 35.4381 27.8956 34.4379 26.8954C33.4377 25.8952 32.0812 25.3333 30.6667 25.3333C29.9048 25.3342 29.152 25.4983 28.4589 25.8145C27.7657 26.1307 27.1484 26.5918 26.6484 27.1667L14.5469 21.1146C14.6258 20.7483 14.666 20.3747 14.6667 20C14.6641 19.626 14.6222 19.2533 14.5417 18.888L26.651 12.8333C27.1507 13.4079 27.7676 13.8687 28.4603 14.185C29.1529 14.5012 29.9052 14.6654 30.6667 14.6667C32.0812 14.6667 33.4377 14.1048 34.4379 13.1046C35.4381 12.1044 36 10.7478 36 9.33333C36 7.91885 35.4381 6.56229 34.4379 5.5621C33.4377 4.5619 32.0812 4 30.6667 4Z" fill="#00C793"/>
</svg>
