<svg width="20" height="20" viewBox="0 0 20 20" fill="none" xmlns="http://www.w3.org/2000/svg">
<path d="M14.4499 17.0014C14.3221 17.002 14.196 16.9721 14.0819 16.9144L10.0009 14.8074L5.92593 16.9154C5.79336 16.9843 5.6443 17.015 5.49531 17.0043C5.34631 16.9935 5.20322 16.9416 5.08193 16.8544C4.96152 16.768 4.86804 16.6493 4.8123 16.512C4.75656 16.3746 4.74083 16.2243 4.76693 16.0784L5.56693 11.6334L2.27193 8.47544C2.16929 8.37481 2.09633 8.24786 2.06106 8.10851C2.02578 7.96917 2.02954 7.8228 2.07193 7.68544C2.11938 7.54457 2.20515 7.4197 2.31961 7.32485C2.43407 7.23 2.57269 7.16891 2.71993 7.14845L7.27793 6.49345L9.28393 2.44245C9.34955 2.30746 9.45181 2.19365 9.57904 2.11403C9.70628 2.03441 9.85334 1.99219 10.0034 1.99219C10.1535 1.99219 10.3006 2.03441 10.4278 2.11403C10.555 2.19365 10.6573 2.30746 10.7229 2.44245L12.7539 6.48545L17.3119 7.14044C17.4592 7.16091 17.5978 7.222 17.7123 7.31685C17.8267 7.4117 17.9125 7.53657 17.9599 7.67745C18.0023 7.8148 18.0061 7.96117 17.9708 8.10051C17.9355 8.23986 17.8626 8.36681 17.7599 8.46744L14.4659 11.6254L15.2659 16.0704C15.2943 16.219 15.2793 16.3725 15.2225 16.5127C15.1657 16.6528 15.0697 16.7736 14.9459 16.8604C14.7995 16.9616 14.6237 17.0115 14.4459 17.0024L14.4499 17.0014ZM10.0009 13.1334C10.129 13.1302 10.2558 13.1602 10.3689 13.2204L13.3859 14.8014L12.8099 11.4774C12.7881 11.3507 12.7979 11.2205 12.8384 11.0984C12.8788 10.9763 12.9487 10.8661 13.0419 10.7774L15.4419 8.46445L12.0839 7.97445C11.9613 7.95026 11.8461 7.89768 11.7474 7.82093C11.6488 7.74417 11.5695 7.64537 11.5159 7.53244L10.0009 4.56645L8.49293 7.52744C8.43431 7.64129 8.34922 7.7394 8.24482 7.81352C8.14041 7.88765 8.01973 7.93564 7.89293 7.95345L4.53493 8.44345L6.93493 10.7564C7.02812 10.8451 7.09803 10.9553 7.1385 11.0774C7.17896 11.1995 7.18873 11.3297 7.16693 11.4564L6.59093 14.7414L9.60093 13.1654C9.72882 13.1183 9.86718 13.1073 10.0009 13.1334Z" fill="#F8A300"/>
</svg>
