<svg width="40" height="40" viewBox="0 0 40 40" fill="none" xmlns="http://www.w3.org/2000/svg">
<path d="M37.334 9.24873C36.058 9.8154 34.6874 10.1967 33.2487 10.3687C34.718 9.48873 35.8447 8.0954 36.3753 6.43406C35.002 7.24873 33.4793 7.84073 31.858 8.16073C30.5607 6.77806 28.7127 5.91406 26.6673 5.91406C22.7393 5.91406 19.5554 9.0994 19.5554 13.0261C19.5554 13.5834 19.6193 14.1274 19.7393 14.6461C13.8287 14.3501 8.58868 11.5181 5.07935 7.21406C4.46868 8.26473 4.11802 9.48606 4.11802 10.7914C4.11802 13.2581 5.37268 15.4354 7.28068 16.7101C6.11535 16.6727 5.01802 16.3527 4.05935 15.8207C4.05935 15.8514 4.05935 15.8794 4.05935 15.9101C4.05935 19.3567 6.51002 22.2314 9.76468 22.8834C9.16868 23.0461 8.53935 23.1327 7.89002 23.1327C7.43268 23.1327 6.98602 23.0874 6.55268 23.0061C7.45802 25.8314 10.0847 27.8887 13.1967 27.9461C10.7633 29.8541 7.69668 30.9914 4.36335 30.9914C3.79002 30.9914 3.22335 30.9581 2.66602 30.8914C5.81402 32.9087 9.55135 34.0861 13.5687 34.0861C26.6514 34.0861 33.8033 23.2487 33.8033 13.8501C33.8033 13.5421 33.7967 13.2354 33.7833 12.9301C35.174 11.9261 36.3807 10.6741 37.334 9.24873Z" fill="#00C793"/>
</svg>
